# Rhino

v 13 4 0
v 13 4 1
v 15 4 0
v 15 4 1
v 15 4 0
v 15 4 1
v 15 8 0
v 15 8 1
v 15 8 0
v 15 8 1
v 13 8 0
v 13 8 1
v 13 8 0
v 13 8 1
v 13 4 0
v 13 4 1
v 13 4 0
v 13 8 0
v 15 4 0
v 15 8 0
v 13 4 1
v 13 8 1
v 15 4 1
v 15 8 1
vn 0 -1 0
vn 0 -1 0
vn 0 -1 0
vn 0 -1 0
vn 1 0 0
vn 1 0 0
vn 1 0 0
vn 1 0 0
vn 0 1 0
vn 0 1 0
vn 0 1 0
vn 0 1 0
vn -1 0 0
vn -1 0 0
vn -1 0 0
vn -1 0 0
vn 0 0 -1
vn 0 0 -1
vn 0 0 -1
vn 0 0 -1
vn 0 0 1
vn 0 0 1
vn 0 0 1
vn 0 0 1
f 2//2 1//1 3//3
f 6//6 5//5 7//7
f 10//10 9//9 11//11
f 14//14 13//13 15//15
f 18//18 20//20 19//19
f 22//22 21//21 23//23
f 2//2 3//3 4//4
f 6//6 7//7 8//8
f 10//10 11//11 12//12
f 14//14 15//15 16//16
f 18//18 19//19 17//17
f 22//22 23//23 24//24
v 1 1 0
v 1 1 7
v 4 1 0
v 4 1 7
v 4 1 0
v 4 1 7
v 4 7 0
v 4 7 7
v 4 7 0
v 4 7 7
v 1 7 0
v 1 7 7
v 1 7 0
v 1 7 7
v 1 1 0
v 1 1 7
v 1 1 0
v 4 1 0
v 4 7 0
v 1 7 0
v 1 1 7
v 4 1 7
v 4 7 7
v 1 7 7
vn 0 -1 0
vn 0 -1 0
vn 0 -1 0
vn 0 -1 0
vn 1 0 0
vn 1 0 0
vn 1 0 0
vn 1 0 0
vn 0 1 0
vn 0 1 0
vn 0 1 0
vn 0 1 0
vn -1 0 0
vn -1 0 0
vn -1 0 0
vn -1 0 0
vn 0 0 -1
vn 0 0 -1
vn 0 0 -1
vn 0 0 -1
vn 0 0 1
vn 0 0 1
vn 0 0 1
vn 0 0 1
f 25//25 27//27 28//28
f 29//29 31//31 32//32
f 33//33 35//35 36//36
f 37//37 39//39 40//40
f 42//42 41//41 44//44
f 44//44 43//43 42//42
f 46//46 48//48 45//45
f 48//48 46//46 47//47
f 25//25 28//28 26//26
f 29//29 32//32 30//30
f 33//33 36//36 34//34
f 37//37 40//40 38//38
v 9 1 0
v 9 1 8
v 19 1 0
v 19 1 8
v 12 1 0
v 17 1 5
v 17 1 0
v 12 1 5
v 19 1 0
v 19 1 8
v 19 5 0
v 19 5 8
v 19 5 0
v 19 5 8
v 9 5 0
v 9 5 8
v 17 5 0
v 17 5 5
v 12 5 5
v 12 5 0
v 9 5 0
v 9 5 8
v 9 1 0
v 9 1 8
v 9 1 8
v 9 5 8
v 19 1 8
v 19 5 8
v 17 1 0
v 17 1 5
v 17 5 0
v 17 5 5
v 12 5 0
v 12 5 5
v 12 1 0
v 12 1 5
v 12 1 5
v 12 5 5
v 17 1 5
v 17 5 5
v 17 1 0
v 17 5 0
v 19 1 0
v 19 5 0
v 9 1 0
v 9 5 0
v 12 1 0
v 12 5 0
vn 0 -1 0
vn 0 -1 0
vn 0 -1 0
vn 0 -1 0
vn 0 -1 0
vn 0 -1 0
vn 0 -1 0
vn 0 -1 0
vn 1 0 0
vn 1 0 0
vn 1 0 0
vn 1 0 0
vn 0 1 0
vn 0 1 0
vn 0 1 0
vn 0 1 0
vn 0 1 0
vn 0 1 0
vn 0 1 0
vn 0 1 0
vn -1 0 0
vn -1 0 0
vn -1 0 0
vn -1 0 0
vn 0 0 1
vn 0 0 1
vn 0 0 1
vn 0 0 1
vn -1 0 0
vn -1 0 0
vn -1 0 0
vn -1 0 0
vn 1 0 0
vn 1 0 0
vn 1 0 0
vn 1 0 0
vn 0 0 -1
vn 0 0 -1
vn 0 0 -1
vn 0 0 -1
vn 0 0 -1
vn 0 0 -1
vn 0 0 -1
vn 0 0 -1
vn 0 0 -1
vn 0 0 -1
vn 0 0 -1
vn 0 0 -1
f 56//56 49//49 53//53
f 52//52 50//50 56//56
f 49//49 56//56 50//50
f 54//54 55//55 51//51
f 51//51 52//52 54//54
f 58//58 57//57 59//59
f 66//66 61//61 65//65
f 67//67 62//62 66//66
f 61//61 66//66 62//62
f 67//67 68//68 63//63
f 62//62 67//67 64//64
f 63//63 64//64 67//67
f 70//70 69//69 71//71
f 74//74 73//73 75//75
f 78//78 80//80 79//79
f 82//82 84//84 83//83
f 86//86 88//88 87//87
f 90//90 92//92 91//91
f 94//94 96//96 95//95
f 52//52 56//56 54//54
f 58//58 59//59 60//60
f 70//70 71//71 72//72
f 74//74 75//75 76//76
f 78//78 79//79 77//77
f 82//82 83//83 81//81
f 86//86 87//87 85//85
f 90//90 91//91 89//89
f 94//94 95//95 93//93
v 10 13 6
v 10 10 4
v 10 10 6
v 10 13 4
v 10 10 4
v 10 10 6
v 13 10 4
v 13 10 6
v 13 10 6
v 13 13 4
v 13 13 6
v 13 10 4
v 13 13 4
v 13 13 6
v 10 13 4
v 10 13 6
v 10 13 0
v 13 13 0
v 10 10 0
v 13 10 0
v 10 13 0
v 10 10 0
v 10 10 2
v 10 13 2
v 10 10 0
v 13 10 0
v 13 10 2
v 10 10 2
v 13 10 0
v 13 13 0
v 13 13 2
v 13 10 2
v 13 13 0
v 13 13 2
v 10 13 0
v 10 13 2
v 8 9 2
v 8 9 4
v 14 9 2
v 14 9 4
v 14 9 2
v 14 9 4
v 14 14 2
v 14 14 4
v 14 14 2
v 14 14 4
v 8 14 2
v 8 14 4
v 8 14 2
v 8 14 4
v 8 9 2
v 8 9 4
v 8 9 2
v 8 14 2
v 14 9 2
v 14 14 2
v 10 10 2
v 10 13 2
v 13 10 2
v 13 13 2
v 8 9 4
v 8 14 4
v 14 9 4
v 14 14 4
v 10 10 4
v 10 13 4
v 13 10 4
v 13 13 4
v 10 13 8
v 10 13 9
v 10 10 8
v 10 10 9
v 10 10 8
v 10 10 9
v 13 10 8
v 13 10 9
v 13 10 8
v 13 10 9
v 13 13 8
v 13 13 9
v 13 13 8
v 13 13 9
v 10 13 8
v 10 13 9
v 8 9 6
v 8 9 8
v 14 9 6
v 14 9 8
v 14 9 6
v 14 9 8
v 14 14 6
v 14 14 8
v 14 14 6
v 14 14 8
v 8 14 6
v 8 14 8
v 8 14 6
v 8 14 8
v 8 9 6
v 8 9 8
v 8 9 6
v 8 14 6
v 14 9 6
v 14 14 6
v 10 10 6
v 10 13 6
v 13 10 6
v 13 13 6
v 8 9 8
v 8 14 8
v 14 9 8
v 14 14 8
v 10 10 8
v 10 13 8
v 13 10 8
v 13 13 8
v 10 13 11
v 10 13 13
v 10 10 11
v 10 10 13
v 10 10 11
v 10 10 13
v 13 10 11
v 13 10 13
v 13 10 11
v 13 10 13
v 13 13 11
v 13 13 13
v 13 13 11
v 13 13 13
v 10 13 11
v 10 13 13
v 8 9 13
v 8 9 15
v 14 9 13
v 14 9 15
v 14 9 13
v 14 9 15
v 14 14 13
v 14 14 15
v 14 14 13
v 14 14 15
v 8 14 13
v 8 14 15
v 8 14 13
v 8 14 15
v 8 9 13
v 8 9 15
v 8 9 13
v 8 14 13
v 14 9 13
v 14 14 13
v 10 10 13
v 10 13 13
v 13 10 13
v 13 13 13
v 8 9 15
v 8 14 15
v 14 9 15
v 14 14 15
v 8 9 9
v 8 9 11
v 14 9 9
v 14 9 11
v 14 9 9
v 14 9 11
v 14 14 9
v 14 14 11
v 14 14 9
v 14 14 11
v 8 14 9
v 8 14 11
v 8 14 9
v 8 14 11
v 8 9 9
v 8 9 11
v 8 9 9
v 8 14 9
v 14 9 9
v 14 14 9
v 10 10 9
v 10 13 9
v 13 10 9
v 13 13 9
v 8 9 11
v 8 14 11
v 14 9 11
v 14 14 11
v 10 10 11
v 10 13 11
v 13 10 11
v 13 13 11
vn -1 0 0
vn -1 0 0
vn -1 0 0
vn -1 0 0
vn 0 -1 0
vn 0 -1 0
vn 0 -1 0
vn 0 -1 0
vn 1 0 0
vn 1 0 0
vn 1 0 0
vn 1 0 0
vn 0 1 0
vn 0 1 0
vn 0 1 0
vn 0 1 0
vn 0 0 -1
vn 0 0 -1
vn 0 0 -1
vn 0 0 -1
vn -1 0 0
vn -1 0 0
vn -1 0 0
vn -1 0 0
vn 0 -1 0
vn 0 -1 0
vn 0 -1 0
vn 0 -1 0
vn 1 0 0
vn 1 0 0
vn 1 0 0
vn 1 0 0
vn 0 1 0
vn 0 1 0
vn 0 1 0
vn 0 1 0
vn 0 -1 0
vn 0 -1 0
vn 0 -1 0
vn 0 -1 0
vn 1 0 0
vn 1 0 0
vn 1 0 0
vn 1 0 0
vn 0 1 0
vn 0 1 0
vn 0 1 0
vn 0 1 0
vn -1 0 0
vn -1 0 0
vn -1 0 0
vn -1 0 0
vn 0 0 -1
vn 0 0 -1
vn 0 0 -1
vn 0 0 -1
vn 0 0 -1
vn 0 0 -1
vn 0 0 -1
vn 0 0 -1
vn 0 0 1
vn 0 0 1
vn 0 0 1
vn 0 0 1
vn 0 0 1
vn 0 0 1
vn 0 0 1
vn 0 0 1
vn -1 0 0
vn -1 0 0
vn -1 0 0
vn -1 0 0
vn 0 -1 0
vn 0 -1 0
vn 0 -1 0
vn 0 -1 0
vn 1 0 0
vn 1 0 0
vn 1 0 0
vn 1 0 0
vn 0 1 0
vn 0 1 0
vn 0 1 0
vn 0 1 0
vn 0 -1 0
vn 0 -1 0
vn 0 -1 0
vn 0 -1 0
vn 1 0 0
vn 1 0 0
vn 1 0 0
vn 1 0 0
vn 0 1 0
vn 0 1 0
vn 0 1 0
vn 0 1 0
vn -1 0 0
vn -1 0 0
vn -1 0 0
vn -1 0 0
vn 0 0 -1
vn 0 0 -1
vn 0 0 -1
vn 0 0 -1
vn 0 0 -1
vn 0 0 -1
vn 0 0 -1
vn 0 0 -1
vn 0 0 1
vn 0 0 1
vn 0 0 1
vn 0 0 1
vn 0 0 1
vn 0 0 1
vn 0 0 1
vn 0 0 1
vn -1 0 0
vn -1 0 0
vn -1 0 0
vn -1 0 0
vn 0 -1 0
vn 0 -1 0
vn 0 -1 0
vn 0 -1 0
vn 1 0 0
vn 1 0 0
vn 1 0 0
vn 1 0 0
vn 0 1 0
vn 0 1 0
vn 0 1 0
vn 0 1 0
vn 0 -1 0
vn 0 -1 0
vn 0 -1 0
vn 0 -1 0
vn 1 0 0
vn 1 0 0
vn 1 0 0
vn 1 0 0
vn 0 1 0
vn 0 1 0
vn 0 1 0
vn 0 1 0
vn -1 0 0
vn -1 0 0
vn -1 0 0
vn -1 0 0
vn 0 0 -1
vn 0 0 -1
vn 0 0 -1
vn 0 0 -1
vn 0 0 -1
vn 0 0 -1
vn 0 0 -1
vn 0 0 -1
vn 0 0 1
vn 0 0 1
vn 0 0 1
vn 0 0 1
vn 0 -1 0
vn 0 -1 0
vn 0 -1 0
vn 0 -1 0
vn 1 0 0
vn 1 0 0
vn 1 0 0
vn 1 0 0
vn 0 1 0
vn 0 1 0
vn 0 1 0
vn 0 1 0
vn -1 0 0
vn -1 0 0
vn -1 0 0
vn -1 0 0
vn 0 0 -1
vn 0 0 -1
vn 0 0 -1
vn 0 0 -1
vn 0 0 -1
vn 0 0 -1
vn 0 0 -1
vn 0 0 -1
vn 0 0 1
vn 0 0 1
vn 0 0 1
vn 0 0 1
vn 0 0 1
vn 0 0 1
vn 0 0 1
vn 0 0 1
f 97//97 100//100 98//98
f 102//102 101//101 103//103
f 105//105 108//108 106//106
f 110//110 109//109 111//111
f 114//114 116//116 115//115
f 120//120 117//117 118//118
f 124//124 121//121 122//122
f 128//128 125//125 126//126
f 130//130 129//129 131//131
f 134//134 133//133 135//135
f 138//138 137//137 139//139
f 142//142 141//141 143//143
f 146//146 145//145 147//147
f 153//153 149//149 150//150
f 149//149 153//153 151//151
f 152//152 156//156 154//154
f 156//156 152//152 151//151
f 161//161 162//162 158//158
f 157//157 159//159 161//161
f 160//160 158//158 162//162
f 164//164 163//163 159//159
f 166//166 165//165 167//167
f 170//170 169//169 171//171
f 174//174 173//173 175//175
f 178//178 177//177 179//179
f 182//182 181//181 183//183
f 186//186 185//185 187//187
f 190//190 189//189 191//191
f 194//194 193//193 195//195
f 201//201 197//197 198//198
f 197//197 201//201 199//199
f 200//200 204//204 202//202
f 204//204 200//200 199//199
f 209//209 210//210 206//206
f 205//205 207//207 209//209
f 208//208 206//206 210//210
f 212//212 211//211 207//207
f 214//214 213//213 215//215
f 218//218 217//217 219//219
f 222//222 221//221 223//223
f 226//226 225//225 227//227
f 230//230 229//229 231//231
f 234//234 233//233 235//235
f 238//238 237//237 239//239
f 242//242 241//241 243//243
f 249//249 245//245 246//246
f 245//245 249//249 247//247
f 248//248 252//252 250//250
f 252//252 248//248 247//247
f 254//254 253//253 255//255
f 258//258 257//257 259//259
f 262//262 261//261 263//263
f 266//266 265//265 267//267
f 270//270 269//269 271//271
f 277//277 273//273 274//274
f 273//273 277//277 275//275
f 276//276 280//280 278//278
f 280//280 276//276 275//275
f 285//285 286//286 282//282
f 281//281 283//283 285//285
f 284//284 282//282 286//286
f 288//288 287//287 283//283
f 97//97 98//98 99//99
f 102//102 103//103 104//104
f 105//105 106//106 107//107
f 110//110 111//111 112//112
f 114//114 115//115 113//113
f 120//120 118//118 119//119
f 124//124 122//122 123//123
f 128//128 126//126 127//127
f 130//130 131//131 132//132
f 134//134 135//135 136//136
f 138//138 139//139 140//140
f 142//142 143//143 144//144
f 146//146 147//147 148//148
f 153//153 150//150 154//154
f 153//153 155//155 151//151
f 152//152 154//154 150//150
f 156//156 151//151 155//155
f 161//161 158//158 157//157
f 159//159 163//163 161//161
f 160//160 162//162 164//164
f 164//164 159//159 160//160
f 166//166 167//167 168//168
f 170//170 171//171 172//172
f 174//174 175//175 176//176
f 178//178 179//179 180//180
f 182//182 183//183 184//184
f 186//186 187//187 188//188
f 190//190 191//191 192//192
f 194//194 195//195 196//196
f 201//201 198//198 202//202
f 201//201 203//203 199//199
f 200//200 202//202 198//198
f 204//204 199//199 203//203
f 209//209 206//206 205//205
f 207//207 211//211 209//209
f 208//208 210//210 212//212
f 212//212 207//207 208//208
f 214//214 215//215 216//216
f 218//218 219//219 220//220
f 222//222 223//223 224//224
f 226//226 227//227 228//228
f 230//230 231//231 232//232
f 234//234 235//235 236//236
f 238//238 239//239 240//240
f 242//242 243//243 244//244
f 249//249 246//246 250//250
f 249//249 251//251 247//247
f 248//248 250//250 246//246
f 252//252 247//247 251//251
f 254//254 255//255 256//256
f 258//258 259//259 260//260
f 262//262 263//263 264//264
f 266//266 267//267 268//268
f 270//270 271//271 272//272
f 277//277 274//274 278//278
f 277//277 279//279 275//275
f 276//276 278//278 274//274
f 280//280 275//275 279//279
f 285//285 282//282 281//281
f 283//283 287//287 285//285
f 284//284 286//286 288//288
f 288//288 283//283 284//284
