# Rhino

v 9 5 9
v 9 5 8
v 9 1 9
v 9 1 8
v 5 5 8
v 5 1 8
v 9 5 8
v 9 1 8
v 10 1 0
v 10 1 4
v 10 5 0
v 10 5 4
v 1 5 0
v 10 5 0
v 1 1 0
v 10 1 0
v 5 5 4
v 10 5 4
v 5 1 4
v 10 1 4
v 5 1 4
v 5 1 8
v 5 5 4
v 5 5 8
v 1 5 9
v 1 1 9
v 9 5 9
v 9 1 9
v 1 5 0
v 1 5 9
v 1 1 0
v 1 1 9
v 1 1 0
v 1 1 9
v 10 1 0
v 9 1 8
v 9 1 9
v 5 1 8
v 5 1 4
v 10 1 4
v 10 5 0
v 1 5 0
v 1 5 9
v 9 5 9
v 9 5 8
v 5 5 8
v 5 5 4
v 10 5 4
vn 1 0 0
vn 1 0 0
vn 1 0 0
vn 1 0 0
vn 0 0 -1
vn 0 0 -1
vn 0 0 -1
vn 0 0 -1
vn 1 0 0
vn 1 0 0
vn 1 0 0
vn 1 0 0
vn 0 0 -1
vn 0 0 -1
vn 0 0 -1
vn 0 0 -1
vn 0 0 1
vn 0 0 1
vn 0 0 1
vn 0 0 1
vn 1 0 0
vn 1 0 0
vn 1 0 0
vn 1 0 0
vn 0 0 1
vn 0 0 1
vn 0 0 1
vn 0 0 1
vn -1 0 0
vn -1 0 0
vn -1 0 0
vn -1 0 0
vn 0 -1 0
vn 0 -1 0
vn 0 -1 0
vn 0 -1 0
vn 0 -1 0
vn 0 -1 0
vn 0 -1 0
vn 0 -1 0
vn 0 1 0
vn 0 1 0
vn 0 1 0
vn 0 1 0
vn 0 1 0
vn 0 1 0
vn 0 1 0
vn 0 1 0
f 2//2 1//1 3//3
f 6//6 5//5 7//7
f 10//10 9//9 11//11
f 14//14 16//16 15//15
f 18//18 17//17 19//19
f 22//22 21//21 23//23
f 26//26 28//28 27//27
f 30//30 29//29 31//31
f 34//34 33//33 39//39
f 33//33 35//35 39//39
f 37//37 34//34 38//38
f 38//38 36//36 37//37
f 46//46 44//44 45//45
f 47//47 48//48 41//41
f 42//42 43//43 47//47
f 41//41 42//42 47//47
f 44//44 46//46 43//43
f 2//2 3//3 4//4
f 6//6 7//7 8//8
f 10//10 11//11 12//12
f 14//14 15//15 13//13
f 18//18 19//19 20//20
f 22//22 23//23 24//24
f 26//26 27//27 25//25
f 30//30 31//31 32//32
f 34//34 39//39 38//38
f 35//35 40//40 39//39
f 43//43 46//46 47//47
